<svg version="1.1" id="Capa_1" xmlns="http://www.w3.org/2000/svg" xmlns:xlink="http://www.w3.org/1999/xlink" x="0px" y="0px"
	 viewBox="0 0 490 490" style="enable-background:new 0 0 490 490;" xml:space="preserve">
<g>
	<path d="M137.633,301.001L119.3,325.54c0.837,0.613,56.644,41.466,130.53,41.466c37.205,0,79.015-10.363,120.691-41.451
		l-18.303-24.554C246.361,379.941,142.029,304.261,137.633,301.001z"/>
	<polygon points="136.033,230.854 221.523,175.361 136.018,119.883 119.36,145.573 165.267,175.361 119.345,205.164 	"/>
	<polygon points="370.655,145.573 353.997,119.883 268.492,175.361 353.982,230.854 370.67,205.164 324.748,175.361 	"/>
	<path d="M420.914,0H69.086C30.999,0,0,30.999,0,69.086v351.829C0,459.001,30.999,490,69.086,490h351.829
		C459.001,490,490,459.001,490,420.914V69.086C490,30.999,459.001,0,420.914,0z M459.375,420.914
		c0,21.204-17.257,38.461-38.461,38.461H69.086c-21.204,0-38.461-17.257-38.461-38.461V69.086c0-21.204,17.257-38.461,38.461-38.461
		h351.829c21.204,0,38.461,17.257,38.461,38.461V420.914z"/>
</svg>
