<svg version="1.1" id="Capa_1" xmlns="http://www.w3.org/2000/svg" xmlns:xlink="http://www.w3.org/1999/xlink" x="0px" y="0px"
	 viewBox="0 0 490 490" style="enable-background:new 0 0 490 490;" xml:space="preserve">
<g>
	<circle cx="157.651" cy="175.289" r="42.642"/>
	<circle cx="332.349" cy="175.289" r="42.642"/>
	<path d="M119.375,325.465c0.837,0.613,56.644,41.466,130.53,41.466c37.205,0,79.015-10.363,120.691-41.452l-18.303-24.554
		c-105.857,78.955-210.188,3.26-214.584,0L119.375,325.465z"/>
	<path d="M69.086,490h351.829C459.001,490,490,459.001,490,420.914V69.086C490,30.991,459.001,0,420.914,0H69.086
		C30.999,0,0,30.991,0,69.086v351.829C0,459.001,30.999,490,69.086,490z M30.625,69.086c0-21.204,17.257-38.461,38.461-38.461
		h351.829c21.204,0,38.461,17.257,38.461,38.461v351.829c0,21.204-17.257,38.461-38.461,38.461H69.086
		c-21.204,0-38.461-17.257-38.461-38.461V69.086z"/>
</g>
</svg>
