<svg version="1.1" id="Capa_1" xmlns="http://www.w3.org/2000/svg" xmlns:xlink="http://www.w3.org/1999/xlink" x="0px" y="0px"
	 viewBox="0 0 490 490" style="enable-background:new 0 0 490 490;" xml:space="preserve">
<g>
	<circle cx="157.651" cy="175.289" r="42.642"/>
	<circle cx="332.349" cy="175.289" r="42.642"/>
	<rect x="153.125" y="317.435" width="183.75" height="30.625"/>
	<path d="M69.086,490h351.829C459.001,490,490,459.001,490,420.914V69.086C490,30.991,459.001,0,420.914,0H69.086
		C30.991,0,0,30.991,0,69.086v351.829C0,459.001,30.991,490,69.086,490z M30.625,69.086c0-21.204,17.257-38.461,38.461-38.461
		h351.829c21.204,0,38.461,17.257,38.461,38.461v351.829c0,21.204-17.257,38.461-38.461,38.461H69.086
		c-21.204,0-38.461-17.257-38.461-38.461V69.086z"/>
</g>
</svg>
